<svg width="1200" height="675" viewBox="0 0 1200 675" fill="none" xmlns="http://www.w3.org/2000/svg">
  <rect width="1200" height="675" rx="48" fill="#2C4F52"/>
  <circle cx="300" cy="220" r="120" fill="#D17A5F" opacity="0.7"/>
  <circle cx="930" cy="180" r="100" fill="#DBBF96" opacity="0.35"/>
  <rect x="180" y="380" width="840" height="180" rx="32" fill="#3A3D40" opacity="0.6"/>
  <rect x="220" y="420" width="200" height="60" rx="16" fill="#F2E3D5" opacity="0.85"/>
  <rect x="440" y="420" width="200" height="60" rx="16" fill="#D17A5F" opacity="0.85"/>
  <rect x="660" y="420" width="200" height="60" rx="16" fill="#DBBF96" opacity="0.9"/>
  <rect x="880" y="420" width="100" height="60" rx="16" fill="#F2E3D5" opacity="0.35"/>
  <rect x="220" y="510" width="720" height="24" rx="12" fill="#F2E3D5" opacity="0.45"/>
  <path d="M220 320 C340 280 420 320 500 280 C580 240 660 280 740 250 C820 220 900 260 960 230" stroke="#F2E3D5" stroke-width="12" stroke-linecap="round" opacity="0.6"/>
</svg>
